<svg width="36" height="36" viewBox="0 0 36 36" fill="none" xmlns="http://www.w3.org/2000/svg">
<mask id="mask0_123_892" style="mask-type:alpha" maskUnits="userSpaceOnUse" x="0" y="0" width="36" height="36">
<circle cx="18.1533" cy="18.2527" r="17.5292" fill="#FFC145"/>
</mask>
<g mask="url(#mask0_123_892)">
<circle cx="18.1533" cy="18.2527" r="17.5292" fill="#FFC145"/>
<path d="M28.9859 37.8703V34.2895C28.9859 32.3901 28.4153 30.5685 27.3995 29.2254C26.3837 27.8823 25.0061 27.1278 23.5695 27.1278H12.7367C11.3002 27.1278 9.92251 27.8823 8.90674 29.2254C7.89097 30.5685 7.32031 32.3901 7.32031 34.2895V37.8703" fill="#197BBD"/>
<path d="M18.1518 21.7106C21.1432 21.7106 23.5682 19.2856 23.5682 16.2942C23.5682 13.3028 21.1432 10.8778 18.1518 10.8778C15.1604 10.8778 12.7354 13.3028 12.7354 16.2942C12.7354 19.2856 15.1604 21.7106 18.1518 21.7106Z" fill="white"/>
</g>
</svg>
