<svg width="171" height="37" viewBox="0 0 171 37" fill="none" xmlns="http://www.w3.org/2000/svg">
<path d="M47.7018 13.0476C47.8581 13.0476 48.02 13.0923 48.1875 13.1816C48.3661 13.2597 48.5001 13.3658 48.5894 13.4998L52.659 19.7633L51.8217 19.7299L55.9918 13.4998C56.2039 13.1983 56.4775 13.0476 56.8124 13.0476C57.0804 13.0476 57.3204 13.1425 57.5326 13.3323C57.7447 13.5221 57.8508 13.7677 57.8508 14.0692V23.766C57.8508 24.0563 57.7559 24.3019 57.5661 24.5029C57.3763 24.6927 57.125 24.7876 56.8124 24.7876C56.4998 24.7876 56.243 24.6927 56.042 24.5029C55.8522 24.3019 55.7573 24.0563 55.7573 23.766V15.8779L56.4105 16.0287L52.994 21.2371C52.8935 21.3599 52.7651 21.466 52.6088 21.5553C52.4637 21.6447 52.3129 21.6837 52.1566 21.6726C52.0115 21.6837 51.8607 21.6447 51.7044 21.5553C51.5593 21.466 51.4365 21.3599 51.336 21.2371L48.1372 16.1794L48.5727 15.2918V23.766C48.5727 24.0563 48.4833 24.3019 48.3047 24.5029C48.1261 24.6927 47.8916 24.7876 47.6013 24.7876C47.3222 24.7876 47.0933 24.6927 46.9146 24.5029C46.736 24.3019 46.6467 24.0563 46.6467 23.766V14.0692C46.6467 13.7901 46.7472 13.55 46.9481 13.3491C47.1603 13.1481 47.4115 13.0476 47.7018 13.0476ZM66.8498 15.8277C67.1401 15.8277 67.3801 15.9282 67.5699 16.1291C67.7597 16.3189 67.8546 16.559 67.8546 16.8493V23.967C67.8546 24.9942 67.6593 25.8092 67.2685 26.4121C66.8889 27.0262 66.3753 27.4672 65.7277 27.7352C65.0801 28.0031 64.3544 28.1371 63.5505 28.1371C63.1933 28.1371 62.8137 28.1092 62.4117 28.0534C62.0098 27.9975 61.6804 27.9138 61.4236 27.8021C61.0887 27.657 60.8542 27.4728 60.7202 27.2495C60.5974 27.0373 60.5751 26.8085 60.6532 26.5628C60.7537 26.239 60.9156 26.0157 61.1389 25.8929C61.3622 25.7813 61.5967 25.7701 61.8423 25.8594C62.0209 25.9153 62.2554 25.999 62.5457 26.1107C62.836 26.2335 63.1709 26.2949 63.5505 26.2949C64.0641 26.2949 64.4884 26.2223 64.8234 26.0772C65.1695 25.9432 65.4263 25.7087 65.5937 25.3738C65.7724 25.05 65.8617 24.6034 65.8617 24.034V22.9119L66.2134 23.3138C66.0236 23.6823 65.7835 23.9893 65.4933 24.2349C65.2141 24.4694 64.8792 24.648 64.4884 24.7709C64.0976 24.8937 63.651 24.9551 63.1486 24.9551C62.5569 24.9551 62.0377 24.8211 61.5911 24.5531C61.1556 24.274 60.8151 23.8944 60.5695 23.4143C60.3239 22.923 60.201 22.3648 60.201 21.7396V16.8493C60.201 16.559 60.2959 16.3189 60.4857 16.1291C60.6756 15.9282 60.9156 15.8277 61.2059 15.8277C61.4962 15.8277 61.7362 15.9282 61.926 16.1291C62.1158 16.3189 62.2107 16.559 62.2107 16.8493V21.1366C62.2107 21.8624 62.3671 22.376 62.6797 22.6774C63.0035 22.9677 63.4501 23.1128 64.0195 23.1128C64.4102 23.1128 64.7396 23.0403 65.0076 22.8951C65.2755 22.7388 65.4821 22.5155 65.6272 22.2252C65.7724 21.9238 65.8449 21.5609 65.8449 21.1366V16.8493C65.8449 16.559 65.9399 16.3189 66.1297 16.1291C66.3195 15.9282 66.5595 15.8277 66.8498 15.8277ZM71.253 13.0476C71.4093 13.0476 71.5712 13.0923 71.7386 13.1816C71.9173 13.2597 72.0512 13.3658 72.1406 13.4998L76.2102 19.7633L75.3728 19.7299L79.543 13.4998C79.7551 13.1983 80.0286 13.0476 80.3636 13.0476C80.6316 13.0476 80.8716 13.1425 81.0837 13.3323C81.2959 13.5221 81.4019 13.7677 81.4019 14.0692V23.766C81.4019 24.0563 81.307 24.3019 81.1172 24.5029C80.9274 24.6927 80.6762 24.7876 80.3636 24.7876C80.051 24.7876 79.7942 24.6927 79.5932 24.5029C79.4034 24.3019 79.3085 24.0563 79.3085 23.766V15.8779L79.9617 16.0287L76.5452 21.2371C76.4447 21.3599 76.3163 21.466 76.16 21.5553C76.0148 21.6447 75.8641 21.6837 75.7078 21.6726C75.5626 21.6837 75.4119 21.6447 75.2556 21.5553C75.1105 21.466 74.9876 21.3599 74.8872 21.2371L71.6884 16.1794L72.1238 15.2918V23.766C72.1238 24.0563 72.0345 24.3019 71.8559 24.5029C71.6772 24.6927 71.4428 24.7876 71.1525 24.7876C70.8733 24.7876 70.6445 24.6927 70.4658 24.5029C70.2872 24.3019 70.1979 24.0563 70.1979 23.766V14.0692C70.1979 13.7901 70.2983 13.55 70.4993 13.3491C70.7114 13.1481 70.9627 13.0476 71.253 13.0476ZM92.4442 20.316C92.4442 21.2315 92.2376 22.041 91.8245 22.7444C91.4226 23.4366 90.8755 23.9781 90.1833 24.3689C89.5022 24.7597 88.7374 24.9551 87.8888 24.9551C87.0403 24.9551 86.2699 24.7597 85.5777 24.3689C84.8966 23.9781 84.3495 23.4366 83.9364 22.7444C83.5345 22.041 83.3335 21.2315 83.3335 20.316C83.3335 19.4005 83.5345 18.5966 83.9364 17.9044C84.3495 17.201 84.8966 16.6539 85.5777 16.2631C86.2699 15.8612 87.0403 15.6602 87.8888 15.6602C88.7374 15.6602 89.5022 15.8612 90.1833 16.2631C90.8755 16.6539 91.4226 17.201 91.8245 17.9044C92.2376 18.5966 92.4442 19.4005 92.4442 20.316ZM90.4345 20.316C90.4345 19.7466 90.3172 19.2553 90.0828 18.8422C89.8595 18.418 89.5524 18.0886 89.1617 17.8541C88.782 17.6197 88.3578 17.5024 87.8888 17.5024C87.4199 17.5024 86.9901 17.6197 86.5993 17.8541C86.2197 18.0886 85.9126 18.418 85.6782 18.8422C85.4549 19.2553 85.3432 19.7466 85.3432 20.316C85.3432 20.8743 85.4549 21.3655 85.6782 21.7898C85.9126 22.2029 86.2197 22.5267 86.5993 22.7612C86.9901 22.9956 87.4199 23.1128 87.8888 23.1128C88.3578 23.1128 88.782 22.9956 89.1617 22.7612C89.5524 22.5267 89.8595 22.2029 90.0828 21.7898C90.3172 21.3655 90.4345 20.8743 90.4345 20.316ZM98.9928 15.6602C99.819 15.6602 100.444 15.8333 100.869 16.1794C101.304 16.5255 101.6 16.9888 101.756 17.5694C101.924 18.1388 102.007 18.7752 102.007 19.4786V23.766C102.007 24.0563 101.912 24.3019 101.723 24.5029C101.533 24.6927 101.293 24.7876 101.003 24.7876C100.712 24.7876 100.472 24.6927 100.282 24.5029C100.093 24.3019 99.9977 24.0563 99.9977 23.766V19.4786C99.9977 19.1102 99.9474 18.7808 99.847 18.4905C99.7576 18.1891 99.5902 17.949 99.3445 17.7704C99.0989 17.5918 98.7472 17.5024 98.2894 17.5024C97.8428 17.5024 97.4632 17.5918 97.1506 17.7704C96.8491 17.949 96.6147 18.1891 96.4472 18.4905C96.2909 18.7808 96.2127 19.1102 96.2127 19.4786V23.766C96.2127 24.0563 96.1178 24.3019 95.928 24.5029C95.7382 24.6927 95.4982 24.7876 95.2079 24.7876C94.9176 24.7876 94.6776 24.6927 94.4878 24.5029C94.2979 24.3019 94.203 24.0563 94.203 23.766V16.8493C94.203 16.559 94.2979 16.3189 94.4878 16.1291C94.6776 15.9282 94.9176 15.8277 95.2079 15.8277C95.4982 15.8277 95.7382 15.9282 95.928 16.1291C96.1178 16.3189 96.2127 16.559 96.2127 16.8493V17.5694L95.9615 17.5192C96.062 17.3294 96.2072 17.1284 96.397 16.9163C96.5868 16.693 96.8101 16.4864 97.0669 16.2966C97.3237 16.1068 97.614 15.9561 97.9377 15.8444C98.2615 15.7216 98.6132 15.6602 98.9928 15.6602ZM108.4 24.9551C107.451 24.9551 106.625 24.7597 105.921 24.3689C105.229 23.967 104.693 23.4255 104.314 22.7444C103.945 22.0633 103.761 21.293 103.761 20.4332C103.761 19.4284 103.962 18.5743 104.364 17.8709C104.777 17.1563 105.313 16.6092 105.972 16.2296C106.63 15.85 107.328 15.6602 108.065 15.6602C108.634 15.6602 109.17 15.7774 109.673 16.0119C110.186 16.2464 110.639 16.5702 111.029 16.9833C111.42 17.3852 111.727 17.8541 111.95 18.3901C112.185 18.926 112.302 19.4954 112.302 20.0983C112.291 20.3663 112.185 20.584 111.984 20.7515C111.783 20.9189 111.548 21.0027 111.281 21.0027H104.883L104.381 19.3279H110.527L110.158 19.6629V19.2107C110.136 18.8869 110.019 18.5966 109.807 18.3398C109.606 18.083 109.349 17.882 109.036 17.7369C108.735 17.5806 108.411 17.5024 108.065 17.5024C107.73 17.5024 107.417 17.5471 107.127 17.6364C106.837 17.7257 106.586 17.8765 106.374 18.0886C106.161 18.3007 105.994 18.5854 105.871 18.9427C105.748 19.3 105.687 19.7522 105.687 20.2993C105.687 20.9022 105.81 21.4158 106.055 21.84C106.312 22.2531 106.636 22.5713 107.027 22.7946C107.429 23.0068 107.853 23.1128 108.299 23.1128C108.713 23.1128 109.042 23.0794 109.288 23.0124C109.533 22.9454 109.729 22.8672 109.874 22.7779C110.03 22.6774 110.17 22.5937 110.292 22.5267C110.493 22.4262 110.683 22.376 110.862 22.376C111.107 22.376 111.308 22.4597 111.465 22.6272C111.632 22.7946 111.716 22.99 111.716 23.2133C111.716 23.5148 111.56 23.7883 111.247 24.034C110.957 24.2796 110.549 24.4973 110.024 24.6871C109.5 24.8658 108.958 24.9551 108.4 24.9551ZM120.625 15.8277C120.915 15.8277 121.155 15.9282 121.345 16.1291C121.535 16.3189 121.63 16.559 121.63 16.8493V23.967C121.63 24.9942 121.434 25.8092 121.044 26.4121C120.664 27.0262 120.15 27.4672 119.503 27.7352C118.855 28.0031 118.13 28.1371 117.326 28.1371C116.968 28.1371 116.589 28.1092 116.187 28.0534C115.785 27.9975 115.456 27.9138 115.199 27.8021C114.864 27.657 114.629 27.4728 114.495 27.2495C114.373 27.0373 114.35 26.8085 114.428 26.5628C114.529 26.239 114.691 26.0157 114.914 25.8929C115.137 25.7813 115.372 25.7701 115.617 25.8594C115.796 25.9153 116.031 25.999 116.321 26.1107C116.611 26.2335 116.946 26.2949 117.326 26.2949C117.839 26.2949 118.264 26.2223 118.599 26.0772C118.945 25.9432 119.201 25.7087 119.369 25.3738C119.548 25.05 119.637 24.6034 119.637 24.034V22.9119L119.989 23.3138C119.799 23.6823 119.559 23.9893 119.268 24.2349C118.989 24.4694 118.654 24.648 118.264 24.7709C117.873 24.8937 117.426 24.9551 116.924 24.9551C116.332 24.9551 115.813 24.8211 115.366 24.5531C114.931 24.274 114.59 23.8944 114.345 23.4143C114.099 22.923 113.976 22.3648 113.976 21.7396V16.8493C113.976 16.559 114.071 16.3189 114.261 16.1291C114.451 15.9282 114.691 15.8277 114.981 15.8277C115.271 15.8277 115.511 15.9282 115.701 16.1291C115.891 16.3189 115.986 16.559 115.986 16.8493V21.1366C115.986 21.8624 116.142 22.376 116.455 22.6774C116.779 22.9677 117.225 23.1128 117.795 23.1128C118.185 23.1128 118.515 23.0403 118.783 22.8951C119.051 22.7388 119.257 22.5155 119.402 22.2252C119.548 21.9238 119.62 21.5609 119.62 21.1366V16.8493C119.62 16.559 119.715 16.3189 119.905 16.1291C120.095 15.9282 120.335 15.8277 120.625 15.8277ZM124.693 24.7709C124.369 24.7709 124.118 24.6871 123.94 24.5196C123.772 24.341 123.688 24.0898 123.688 23.766V23.4813C123.688 23.1575 123.772 22.9119 123.94 22.7444C124.118 22.5658 124.369 22.4764 124.693 22.4764H124.911C125.235 22.4764 125.48 22.5658 125.648 22.7444C125.826 22.9119 125.916 23.1575 125.916 23.4813V23.766C125.916 24.0898 125.826 24.341 125.648 24.5196C125.48 24.6871 125.235 24.7709 124.911 24.7709H124.693ZM131.962 15.6602C132.598 15.6602 133.151 15.7272 133.62 15.8612C134.1 15.9952 134.469 16.185 134.725 16.4306C134.993 16.6651 135.127 16.9498 135.127 17.2847C135.127 17.508 135.06 17.7202 134.926 17.9211C134.792 18.1109 134.597 18.2058 134.34 18.2058C134.161 18.2058 134.011 18.1835 133.888 18.1388C133.776 18.083 133.676 18.016 133.586 17.9379C133.497 17.8597 133.391 17.7871 133.268 17.7202C133.157 17.6532 132.984 17.6029 132.749 17.5694C132.526 17.5248 132.358 17.5024 132.247 17.5024C131.677 17.5024 131.192 17.6252 130.79 17.8709C130.399 18.1165 130.097 18.4515 129.885 18.8757C129.673 19.2888 129.567 19.7689 129.567 20.316C129.567 20.8519 129.673 21.332 129.885 21.7563C130.109 22.1694 130.41 22.4988 130.79 22.7444C131.18 22.99 131.627 23.1128 132.129 23.1128C132.409 23.1128 132.649 23.0961 132.85 23.0626C133.051 23.0291 133.218 22.9789 133.352 22.9119C133.508 22.8226 133.648 22.7277 133.771 22.6272C133.894 22.5267 134.078 22.4764 134.323 22.4764C134.614 22.4764 134.837 22.5713 134.993 22.7612C135.15 22.9398 135.228 23.1631 135.228 23.4311C135.228 23.7102 135.071 23.967 134.759 24.2014C134.446 24.4247 134.033 24.609 133.519 24.7541C133.017 24.8881 132.47 24.9551 131.878 24.9551C130.996 24.9551 130.231 24.7541 129.584 24.3522C128.936 23.9391 128.434 23.3808 128.077 22.6774C127.73 21.974 127.557 21.1869 127.557 20.316C127.557 19.4005 127.742 18.5966 128.11 17.9044C128.49 17.201 129.009 16.6539 129.668 16.2631C130.337 15.8612 131.102 15.6602 131.962 15.6602ZM145.369 20.316C145.369 21.2315 145.162 22.041 144.749 22.7444C144.347 23.4366 143.8 23.9781 143.108 24.3689C142.427 24.7597 141.662 24.9551 140.814 24.9551C139.965 24.9551 139.195 24.7597 138.502 24.3689C137.821 23.9781 137.274 23.4366 136.861 22.7444C136.459 22.041 136.258 21.2315 136.258 20.316C136.258 19.4005 136.459 18.5966 136.861 17.9044C137.274 17.201 137.821 16.6539 138.502 16.2631C139.195 15.8612 139.965 15.6602 140.814 15.6602C141.662 15.6602 142.427 15.8612 143.108 16.2631C143.8 16.6539 144.347 17.201 144.749 17.9044C145.162 18.5966 145.369 19.4005 145.369 20.316ZM143.359 20.316C143.359 19.7466 143.242 19.2553 143.007 18.8422C142.784 18.418 142.477 18.0886 142.086 17.8541C141.707 17.6197 141.282 17.5024 140.814 17.5024C140.345 17.5024 139.915 17.6197 139.524 17.8541C139.144 18.0886 138.837 18.418 138.603 18.8422C138.38 19.2553 138.268 19.7466 138.268 20.316C138.268 20.8743 138.38 21.3655 138.603 21.7898C138.837 22.2029 139.144 22.5267 139.524 22.7612C139.915 22.9956 140.345 23.1128 140.814 23.1128C141.282 23.1128 141.707 22.9956 142.086 22.7612C142.477 22.5267 142.784 22.2029 143.007 21.7898C143.242 21.3655 143.359 20.8743 143.359 20.316ZM151.834 15.6602C152.727 15.6602 153.386 15.8779 153.81 16.3134C154.234 16.7376 154.513 17.2903 154.647 17.9714L154.363 17.8206L154.497 17.5527C154.631 17.2959 154.837 17.0223 155.116 16.732C155.395 16.4306 155.73 16.1794 156.121 15.9784C156.523 15.7663 156.97 15.6602 157.461 15.6602C158.265 15.6602 158.873 15.8333 159.286 16.1794C159.711 16.5255 160.001 16.9888 160.157 17.5694C160.314 18.1388 160.392 18.7752 160.392 19.4786V23.766C160.392 24.0563 160.297 24.3019 160.107 24.5029C159.917 24.6927 159.677 24.7876 159.387 24.7876C159.097 24.7876 158.857 24.6927 158.667 24.5029C158.477 24.3019 158.382 24.0563 158.382 23.766V19.4786C158.382 19.1102 158.337 18.7808 158.248 18.4905C158.159 18.1891 157.997 17.949 157.762 17.7704C157.528 17.5918 157.193 17.5024 156.758 17.5024C156.333 17.5024 155.97 17.5918 155.669 17.7704C155.368 17.949 155.139 18.1891 154.982 18.4905C154.837 18.7808 154.765 19.1102 154.765 19.4786V23.766C154.765 24.0563 154.67 24.3019 154.48 24.5029C154.29 24.6927 154.05 24.7876 153.76 24.7876C153.469 24.7876 153.229 24.6927 153.04 24.5029C152.85 24.3019 152.755 24.0563 152.755 23.766V19.4786C152.755 19.1102 152.71 18.7808 152.621 18.4905C152.532 18.1891 152.37 17.949 152.135 17.7704C151.901 17.5918 151.566 17.5024 151.13 17.5024C150.706 17.5024 150.343 17.5918 150.042 17.7704C149.74 17.949 149.511 18.1891 149.355 18.4905C149.21 18.7808 149.137 19.1102 149.137 19.4786V23.766C149.137 24.0563 149.043 24.3019 148.853 24.5029C148.663 24.6927 148.423 24.7876 148.133 24.7876C147.842 24.7876 147.602 24.6927 147.412 24.5029C147.223 24.3019 147.128 24.0563 147.128 23.766V16.8493C147.128 16.559 147.223 16.3189 147.412 16.1291C147.602 15.9282 147.842 15.8277 148.133 15.8277C148.423 15.8277 148.663 15.9282 148.853 16.1291C149.043 16.3189 149.137 16.559 149.137 16.8493V17.5694L148.886 17.5192C148.987 17.3294 149.126 17.1284 149.305 16.9163C149.484 16.693 149.701 16.4864 149.958 16.2966C150.215 16.1068 150.5 15.9561 150.812 15.8444C151.125 15.7216 151.465 15.6602 151.834 15.6602Z" fill="#0F4264"/>
<path d="M18.3906 0.787598C8.4497 0.787598 0.390625 8.84668 0.390625 18.7876C0.390625 28.7285 8.4497 36.7876 18.3906 36.7876C28.3315 36.7876 36.3906 28.7285 36.3906 18.7876C36.3906 8.84668 28.3315 0.787598 18.3906 0.787598ZM18.3906 33.7876C10.1065 33.7876 3.39065 27.0717 3.39065 18.7876C3.39065 10.5035 10.1065 3.78762 18.3906 3.78762C26.6747 3.78762 33.3906 10.5035 33.3906 18.7876C33.3906 27.0717 26.6747 33.7876 18.3906 33.7876Z" fill="black"/>
<path d="M27.3906 21.7876H9.3906C8.56218 21.7876 7.89062 22.4592 7.89062 23.2876C7.89062 28.715 12.5112 32.2876 18.3906 32.2876C24.27 32.2876 28.8906 28.715 28.8906 23.2876C28.8906 22.4592 28.219 21.7876 27.3906 21.7876ZM18.3906 29.2876C14.6665 29.2876 11.84 27.5253 11.0886 24.7876H25.6926C24.9412 27.5253 22.1147 29.2876 18.3906 29.2876Z" fill="black"/>
<path d="M10.7508 12.6316C11.2038 12.8551 11.8953 13.0966 12.8073 13.3501V17.9071C12.5598 17.8652 12.3318 17.8036 12.1248 17.7257C11.2818 17.4047 10.9053 17.2051 10.4028 16.6592V15.5896C10.4028 15.3047 10.2182 15.1186 9.93173 15.1186C9.64675 15.1186 9.46225 15.3046 9.46225 15.5896V18.5281C9.46225 18.8147 9.64675 18.9992 9.93173 18.9992C10.2182 18.9992 10.4028 18.8147 10.4028 18.5281V17.9012C11.2248 18.5612 11.8292 18.7216 12.8072 18.8566V19.5257C12.8072 19.8122 12.9917 19.9967 13.2783 19.9967C13.5632 19.9967 13.7477 19.8122 13.7477 19.5257V18.9137C14.9792 18.8987 15.9452 18.6032 16.6172 18.0376C17.3207 17.4467 17.6778 16.6412 17.6778 15.6436C17.6778 15.1186 17.5338 14.6612 17.2517 14.2801C16.9772 13.9097 16.5827 13.5976 16.0832 13.3486C15.6017 13.1116 15.0603 12.9136 14.4753 12.7606C14.1363 12.6721 13.8933 12.6076 13.7477 12.5686V8.3116C13.9637 8.35512 14.1692 8.41812 14.3627 8.5006C15.1502 8.82312 15.6137 9.2836 16.1447 9.87162V10.8631C16.1447 11.1496 16.3292 11.3341 16.6142 11.3341C16.9007 11.3341 17.0852 11.1496 17.0852 10.8631V7.9246C17.0852 7.63807 16.9007 7.45357 16.6142 7.45357C16.3292 7.45357 16.1447 7.63807 16.1447 7.9246V8.55157C16.0353 8.46607 16.1088 8.36707 15.9527 8.25605C15.3528 7.82707 14.6117 7.52705 13.7477 7.36653V6.68703C13.7477 6.4005 13.5632 6.216 13.2783 6.216C12.9917 6.216 12.8072 6.4005 12.8072 6.68703V7.3005C11.5877 7.32153 10.6712 7.60053 10.0847 8.13448C9.46823 8.6955 9.15625 9.4515 9.15625 10.383C9.15625 10.878 9.30025 11.3205 9.58227 11.7015C9.85677 12.0706 10.2498 12.3841 10.7508 12.6316ZM11.4243 17.9446C11.5008 17.9806 11.5803 18.0166 11.6613 18.0511C11.5817 18.0181 11.5023 17.9821 11.4243 17.9446ZM15.8943 17.9581C16.0263 17.8846 16.1508 17.8006 16.2648 17.7091C16.3034 17.6787 16.3405 17.6475 16.3764 17.6156C16.3549 17.6349 16.3335 17.6542 16.3113 17.6731C16.1853 17.7796 16.0457 17.8741 15.8943 17.9581ZM16.3783 17.6138C16.4142 17.5818 16.4489 17.549 16.4823 17.5156C16.4489 17.549 16.414 17.5816 16.3783 17.6138ZM13.7478 13.6066L14.4978 13.8151C14.8548 13.9156 15.2163 14.0461 15.5703 14.2051C15.9018 14.3551 16.1853 14.5681 16.4133 14.8381C16.6307 15.0961 16.7358 15.3886 16.7358 15.7367C16.7358 16.3982 16.4853 16.9216 15.9678 17.3372C15.4578 17.7452 14.7123 17.9582 13.7478 17.9732V13.6066ZM10.7718 8.83212C11.2083 8.45862 11.8922 8.26062 12.8072 8.24114V12.3077C12.6437 12.2582 12.4638 12.2056 12.2672 12.1502C11.9553 12.0616 11.6177 11.9356 11.2637 11.7752C10.9322 11.6267 10.6487 11.4137 10.4192 11.1422C10.2032 10.8857 10.0967 10.5917 10.0967 10.2452C10.0967 9.68262 10.3173 9.2206 10.7718 8.83212Z" fill="black"/>
<path d="M21.5565 12.6316C22.0095 12.8551 22.7009 13.0966 23.613 13.3501V17.9071C23.3655 17.8652 23.1374 17.8036 22.9304 17.7257C22.0875 17.4047 21.7109 17.2051 21.2084 16.6592V15.5896C21.2084 15.3047 21.0239 15.1186 20.7374 15.1186C20.4524 15.1186 20.2679 15.3046 20.2679 15.5896V18.5281C20.2679 18.8147 20.4524 18.9992 20.7374 18.9992C21.0239 18.9992 21.2084 18.8147 21.2084 18.5281V17.9012C22.0304 18.5612 22.6349 18.7216 23.6129 18.8566V19.5257C23.6129 19.8122 23.7974 19.9967 24.0839 19.9967C24.3689 19.9967 24.5534 19.8122 24.5534 19.5257V18.9137C25.7849 18.8987 26.7509 18.6032 27.4229 18.0376C28.1264 17.4467 28.4834 16.6412 28.4834 15.6436C28.4834 15.1186 28.3394 14.6612 28.0574 14.2801C27.7829 13.9097 27.3884 13.5976 26.8889 13.3486C26.4074 13.1116 25.8659 12.9136 25.2809 12.7606C24.9419 12.6721 24.6989 12.6076 24.5534 12.5686V8.3116C24.7694 8.35512 24.9749 8.41812 25.1684 8.5006C25.9559 8.82312 26.4194 9.2836 26.9504 9.87162V10.8631C26.9504 11.1496 27.1349 11.3341 27.4199 11.3341C27.7064 11.3341 27.8909 11.1496 27.8909 10.8631V7.9246C27.8909 7.63807 27.7064 7.45357 27.4199 7.45357C27.1349 7.45357 26.9504 7.63807 26.9504 7.9246V8.55157C26.8409 8.46607 26.9144 8.36707 26.7584 8.25605C26.1584 7.82707 25.4174 7.52705 24.5534 7.36653V6.68703C24.5534 6.4005 24.3689 6.216 24.0839 6.216C23.7974 6.216 23.6129 6.4005 23.6129 6.68703V7.3005C22.3934 7.32153 21.4769 7.60053 20.8904 8.13448C20.2739 8.6955 19.9619 9.4515 19.9619 10.383C19.9619 10.878 20.1059 11.3205 20.3879 11.7015C20.6624 12.0706 21.0555 12.3841 21.5565 12.6316ZM22.23 17.9446C22.3065 17.9806 22.386 18.0166 22.467 18.0511C22.3875 18.0181 22.308 17.9821 22.23 17.9446ZM26.7 17.9581C26.8319 17.8846 26.9565 17.8006 27.0704 17.7091C27.109 17.6787 27.1462 17.6475 27.182 17.6156C27.1606 17.6349 27.1392 17.6542 27.1169 17.6731C26.991 17.7796 26.8515 17.8741 26.7 17.9581ZM27.184 17.6138C27.2199 17.5818 27.2545 17.549 27.288 17.5156C27.2546 17.549 27.2196 17.5816 27.184 17.6138ZM24.5535 13.6066L25.3035 13.8151C25.6605 13.9156 26.022 14.0461 26.376 14.2051C26.7075 14.3551 26.991 14.5681 27.2189 14.8381C27.4364 15.0961 27.5429 15.3886 27.5429 15.7367C27.5429 16.3982 27.2909 16.9216 26.7734 17.3372C26.2635 17.7452 25.5179 17.9582 24.5535 17.9732V13.6066ZM21.5775 8.83212C22.014 8.45862 22.698 8.26062 23.613 8.24114V12.3077C23.4495 12.2582 23.2695 12.2056 23.073 12.1502C22.761 12.0616 22.4235 11.9356 22.0695 11.7752C21.7379 11.6267 21.4544 11.4137 21.2249 11.1422C21.0089 10.8857 20.9024 10.5917 20.9024 10.2452C20.9025 9.68262 21.123 9.2206 21.5775 8.83212Z" fill="black"/>
</svg>
